<?xml version="1.0" encoding="UTF-8"?>
<svg id="Layer_1" xmlns="http://www.w3.org/2000/svg" width="50mm" height="21.4mm" version="1.1" viewBox="0 0 141.7 60.6">
  <defs>
    <style>
      .st0 {
        opacity: 0.1;
      }

      .st0, .st1 {
        fill: #2B4B6F;
      }
    </style>
  </defs>
  <path class="st1" d="M87.9,41.1c.8-1.8,1.7-3.4,2.5-4.7.8-1.4,1.7-2.5,2.5-3.4h-49.4v-3.6h49.4c-.8-1-1.6-2.1-2.5-3.5-.8-1.4-1.6-2.9-2.5-4.7h3c3.6,4.1,7.3,7.2,11.2,9.2v1.5c-3.9,1.9-7.6,5-11.2,9.2h-3Z"/>
  <path class="st1" d="M34.6,60.6c-1.7,0-3.1,0-5.3-.4-8.6-1.4-15.3-8.5-16.8-17.6-.3-5-9.2-9.2-11.4-10h-.3C.2,32,0,31.5,0,31.1c0-.9.7-1.3,1.2-1.7.1-.1.3-.2.5-.3,5.1-3.8,9.8-7.7,11.3-13.3C15.1,7.8,21.4,1.9,28.9.5,32.5,0,35.4,0,38.7,0c1.9,0,3.8,0,6,0,9.3,0,20.2,0,30.8,0,16.9,0,32.8-.2,38.2.4,10.5,1.9,14.7,10.5,17.1,17.7,2.5,4.2,6.2,8.3,9.8,10.6h.2l.5.5c.3.4.4.8.4,1.2-.1.7-.6,1.1-.8,1.2-.3.2-.7.4-1.2.7-2.8,1.7-9.4,5.6-9.2,9.7-.9,10.6-9.9,18.5-20.7,18.3H44.8c-3.7,0-6,0-7.9,0-.9,0-1.6,0-2.3,0ZM3.3,30.9c4,1.7,11.2,6,11.6,11.4,1.3,7.9,7.4,14.3,14.8,15.5,3,.4,4.5.4,7.2.3,1.9,0,4.2,0,8,0h65c.1,0,.3,0,.4,0,8.2,0,17-5.9,17.8-15.9-.2-5.4,6.9-9.7,10.4-11.7,0,0,0,0,.1,0-3.7-2.6-7.3-6.7-9.9-11v-.2c-3.5-10-8.1-14.9-15.3-16.2-5.2-.6-21-.5-37.8-.4-10.6,0-21.5.1-30.8,0-2.3,0-4.2,0-6.1,0-3.2,0-6-.1-9.4.4-6.6,1.2-12.1,6.5-14,13.4-1.6,6.3-6.8,10.6-12,14.5Z"/>
  <path class="st0" d="M34.6,60.6c-1.7,0-3.1,0-5.3-.4-8.6-1.4-15.3-8.5-16.8-17.6-.3-5-9.2-9.2-11.4-10h-.3C.2,32,0,31.5,0,31.1c0-.9.7-1.3,1.2-1.7.1-.1.3-.2.5-.3,5.1-3.8,9.8-7.7,11.3-13.3C15.1,7.8,21.4,1.9,28.9.5,32.5,0,35.4,0,38.7,0c1.9,0,3.8,0,6,0,9.3,0,20.2,0,30.8,0,16.9,0,32.8-.2,38.2.4,10.5,1.9,14.7,10.5,17.1,17.7,2.5,4.2,6.2,8.3,9.8,10.6h.2l.5.5c.3.4.4.8.4,1.2-.1.7-.6,1.1-.8,1.2-.3.2-.7.4-1.2.7-2.8,1.7-9.4,5.6-9.2,9.7-.9,10.6-9.9,18.5-20.7,18.3H44.8c-3.7,0-6,0-7.9,0-.9,0-1.6,0-2.3,0Z"/>
  <path class="st1" d="M26,27.9c-1.7,0-3,1.4-3,3s1.4,3,3,3,3-1.4,3-3-1.4-3-3-3Z"/>
  <path class="st1" d="M120.5,27.9c-1.7,0-3,1.4-3,3s1.4,3,3,3,3-1.4,3-3-1.4-3-3-3Z"/>
</svg>