<svg width="37" height="8" viewBox="0 0 37 8" fill="none" xmlns="http://www.w3.org/2000/svg">
<path d="M34.9817 7.88878C34.2588 6.61417 33.1254 5.60942 31.7779 5.05823C31.1302 4.79987 30.3206 4.66207 29.164 4.61614C28.8343 4.60466 28.4758 4.59892 28.0305 4.59892C27.6777 4.59892 27.3192 4.59892 26.9664 4.60466L26.2666 4.61614C25.8907 4.62188 25.5091 4.63337 25.1158 4.63337C22.9934 4.63337 20.3217 4.40945 17.9737 2.79035C15.6952 4.03051 12.9945 4.63337 9.75602 4.63337C9.22976 4.63337 8.68037 4.61614 8.0905 4.58743C6.18787 4.48983 4.41247 5.17881 3.0708 6.51083C2.65442 6.92421 2.30166 7.39501 2.01829 7.89452L0 6.76919C0.387465 6.08596 0.867459 5.4544 1.4342 4.89173C3.12285 3.20948 5.36089 2.2851 7.73195 2.2851C7.88809 2.2851 8.05002 2.2851 8.21194 2.29659C8.76711 2.3253 9.27024 2.34252 9.75602 2.34252C12.8847 2.34252 15.4003 1.72244 17.4417 0.447835L18.153 0L18.8007 0.539698C20.7207 2.14157 23.1843 2.34252 25.1158 2.34252C25.4917 2.34252 25.8618 2.33678 26.2262 2.3253L26.9606 2.31381C27.3134 2.31381 27.6719 2.30807 28.0363 2.30807C28.5105 2.30807 28.8922 2.31381 29.2507 2.3253C30.6965 2.38271 31.7432 2.57218 32.6569 2.93963C34.4902 3.69177 36.0284 5.04675 37 6.76919L34.9817 7.89452V7.88878Z" fill="#F7F0E9"/>
</svg>
