<?xml version="1.0" encoding="UTF-8"?>
<svg id="Layer_1" xmlns="http://www.w3.org/2000/svg" width="49.7mm" height="18mm" version="1.1" viewBox="0 0 141 51">
  <!-- Generator: Adobe Illustrator 29.8.2, SVG Export Plug-In . SVG Version: 2.1.1 Build 3)  -->
  <defs>
    <style>
      .st0 {
        fill: #2B4B6F;
        opacity: .2;
      }

      .st1 {
        fill: #2B4B6F;
      }
    </style>
  </defs>
  <path class="st0" d="M118.6,50.3H21.8c-7,0-12.7-5.7-12.7-12.7v-1.8h-.1c0-.1,0-.5,0-.5,0-.2-.3-6-8.1-8.7h0s-.7-.2-.7-.2v-2.4l.7-.2c8-2.6,8.2-8.4,8.2-8.7l.2-2.7C9.1,5.7,14.8,0,21.8,0h96.8c7,0,12.7,5.7,12.7,12.7v2.5c.2.3.4,6.1,8.3,8.7l.7.2v2.3l-.8.3c-7.8,2.6-8.1,8.4-8.1,8.7v.4s0,1.8,0,1.8c0,7-5.7,12.7-12.7,12.7Z"/>
  <path class="st1" d="M118.6,50.3H21.8c-7,0-12.7-5.7-12.7-12.7v-1.8h-.1c0-.1,0-.5,0-.5,0-.2-.3-6-8.1-8.7h0s-.7-.2-.7-.2v-2.4l.7-.2c8-2.6,8.2-8.4,8.2-8.7l.2-2.7C9.1,5.7,14.8,0,21.8,0h96.8c7,0,12.7,5.7,12.7,12.7v2.5c.2.3.4,6.1,8.3,8.7l.7.2v2.3l-.8.3c-7.8,2.6-8.1,8.4-8.1,8.7v.4s0,1.8,0,1.8c0,7-5.7,12.7-12.7,12.7ZM11,35.1c0,.1,0,.3.1.5h0v2c0,5.9,4.8,10.7,10.7,10.7h96.8c5.9,0,10.7-4.8,10.7-10.7v-2.5c.2-1.2,1-6.8,8.2-9.8-7.9-3.3-8.1-9.7-8.1-10v-1.8c-.1,0-.2-.8-.2-.8,0-5.9-4.8-10.7-10.7-10.7H21.8c-5.9,0-10.7,4.8-10.7,10.7h0c0,.1-.2,2.7-.2,2.7,0,.2-.1,6.6-8.1,9.9,7.2,3,8.1,8.5,8.2,9.8Z"/>
  <path class="st1" d="M17.5,28c-1.4,0-2.5-1.1-2.5-2.5s1.1-2.5,2.5-2.5,2.5,1.1,2.5,2.5-1.1,2.5-2.5,2.5ZM17.5,24c-.8,0-1.5.7-1.5,1.5s.7,1.5,1.5,1.5,1.5-.7,1.5-1.5-.7-1.5-1.5-1.5Z"/>
  <path class="st1" d="M120.5,28c-1.4,0-2.5-1.1-2.5-2.5s1.1-2.5,2.5-2.5,2.5,1.1,2.5,2.5-1.1,2.5-2.5,2.5ZM120.5,24c-.8,0-1.5.7-1.5,1.5s.7,1.5,1.5,1.5,1.5-.7,1.5-1.5-.7-1.5-1.5-1.5Z"/>
</svg>