<?xml version="1.0" encoding="UTF-8"?>
<svg id="Layer_1" xmlns="http://www.w3.org/2000/svg" width="70.6mm" height="21.2mm" version="1.1" viewBox="0 0 200 60">
  <!-- Generator: Adobe Illustrator 29.8.2, SVG Export Plug-In . SVG Version: 2.1.1 Build 3)  -->
  <defs>
    <style>
      .st0 {
        fill: #fff;
        opacity: 0.25;
      }

      .st1 {
        fill: #f7f0e9;
      }
    </style>
  </defs>
  <path class="st0" d="M188.9,21.6c-1.2-1.9-2-3.9-2.5-6.1-.1-.7-.2-1.3-.3-1.9-.3-1.9-.5-3.9-1.8-5.9-1.9-2.9-5-5.2-8.7-6.5C173.4.4,171,0,168.6,0H31C23.1,0,16.5,4.2,14,10.7c-.5,1.3-.7,2.6-.9,3.8-.3,1.5-.5,2.9-1.2,4.3-1.4,2.9-3.1,5.1-5.2,6.7-2,1.6-4.3,2.6-6.8,3v2.3c1.3.5,3.1,1.6,3.8,2l.6.4c5.4,3.2,8.6,7.7,8.6,11.8s.4,3.5,1.1,5.2c.1.5.4.9.7,1.3,3,5.1,9.3,8.4,16.2,8.4h137.6c9.7,0,18-6.8,18-14.9,0-5.2,4.1-9,7.5-11.2,1.5-1,3.1-1.8,4.8-2.5,0,0,.2-.1.4-.2.1,0,.4-.2.7-.3v-2.2c-4.5-.5-8.5-3.1-11.1-7.1Z"/>
  <path class="st1" d="M188.9,21.6c-1.2-1.9-2-3.9-2.5-6.1-.1-.7-.2-1.3-.3-1.9-.3-1.9-.5-3.9-1.8-5.9-1.9-2.9-5-5.2-8.7-6.5C173.4.4,171,0,168.6,0H31C23.1,0,16.5,4.2,14,10.7c-.5,1.3-.7,2.6-.9,3.8-.3,1.5-.5,2.9-1.2,4.3-1.4,2.9-3.1,5.1-5.2,6.7-2,1.6-4.3,2.6-6.8,3v2.3c1.3.5,3.1,1.6,3.8,2l.6.4c5.4,3.2,8.6,7.7,8.6,11.8s.4,3.5,1.1,5.2c.1.5.4.9.7,1.3,3,5.1,9.3,8.4,16.2,8.4h137.6c9.7,0,18-6.8,18-14.9,0-5.2,4.1-9,7.5-11.2,1.5-1,3.1-1.8,4.8-2.5,0,0,.2-.1.4-.2.1,0,.4-.2.7-.3v-2.2c-4.5-.5-8.5-3.1-11.1-7.1ZM192.6,32.3c-5.5,3.6-8.4,8.1-8.4,12.8,0,7-7.1,12.9-15.5,12.9H31c-6,0-11.5-2.9-14-7.4v-.2c-.3-.2-.4-.4-.5-.7h0c-.7-1.6-1-3.1-1-4.7,0-4.8-3.6-9.8-9.6-13.5l-.5-.3c-.8-.5-1.5-.9-2.3-1.4,2-.6,3.9-1.6,5.5-2.9,2.3-1.8,4.2-4.3,5.7-7.4.8-1.6,1.1-3.2,1.3-4.7.2-1.2.4-2.4.8-3.5,2.1-5.7,7.9-9.3,14.6-9.3h137.6c2.1,0,4.1.4,6,1,3.2,1.1,5.9,3.1,7.5,5.6,1.1,1.6,1.3,3.3,1.6,5.1,0,.7.2,1.4.3,2,.5,2.4,1.4,4.6,2.7,6.7,2.4,3.7,5.9,6.3,9.9,7.5-1.4.7-2.8,1.4-4.1,2.3Z"/>
</svg>