<?xml version="1.0" encoding="UTF-8"?>
<svg id="Layer_1" xmlns="http://www.w3.org/2000/svg" width="10.2mm" height="12.3mm" xmlns:xlink="http://www.w3.org/1999/xlink" version="1.1" viewBox="0 0 29 35">
  <!-- Generator: Adobe Illustrator 29.8.2, SVG Export Plug-In . SVG Version: 2.1.1 Build 3)  -->
  <defs>
    <style>
      .st0 {
        fill: none;
      }

      .st1 {
        fill: #273D7F;
      }

      .st2 {
        clip-path: url(#clippath);
      }
    </style>
    <clipPath id="clippath">
      <rect class="st0" y="0" width="29" height="35"/>
    </clipPath>
  </defs>
  <g class="st2">
    <g>
      <path class="st1" d="M14.3,35c0,0-.2,0-.2,0-.4-.1-.6-.4-.7-.8,0,0,0-.1-.2-.3-.1-.2-.3-.3-.5-.5-.4-.3-.9-.5-1.5-.7-.2,0-.5-.2-.7-.2-.4-.1-.8-.2-1.2-.2-.2,0-.5,0-.7,0-.3,0-.6,0-.8,0-4,0-7.4-3.3-7.7-7.3,0,0,0,0,0,0C0,23.1,0,18.8,0,15.3c0-2.1,0-4.3,0-4.6,0,0,0,0,0-.1C0,8.4.9,6.3,2.5,4.7c1.6-1.5,3.7-2.4,5.9-2.2,2.1.1,3.5-.2,4.6-1.1.2-.1.3-.3.4-.4.1-.1.2-.3.3-.5C13.7.2,14,0,14.4,0c.4,0,.7.2.9.6,0,.2.2.4.3.5,0,0,.4.5.8.9.7.6,1.8.6,2.9.5.1,0,.3,0,.4,0h0c.5,0,1,0,1.5,0,.7,0,1.8.1,2.9.6,2.4,1,4.2,3.2,4.7,5.8.1.5.2,1.1.2,1.7v13.8c0,4.4-3.6,7.9-7.9,7.9h-2.5c-.6,0-.9,0-1.4.1,0,0,0,0,0,0-1,.3-1.9,1.5-2,1.8-.1.4-.5.7-.9.7h0ZM9.2,30.5h.1c.6,0,1.1,0,1.6.2.3,0,.6.2.8.3.8.3,1.4.6,1.9.9.2.1.4.3.6.5.6-.7,1.4-1.4,2.4-1.6.7-.2,1.2-.2,1.9-.2h2.5c3.3,0,6-2.7,6-6.1h0v-13.8c0-.4,0-.9-.1-1.3-.4-2-1.8-3.7-3.6-4.5-.6-.3-1.3-.4-2.3-.4-.5,0-1,0-1.4,0h0c-.1,0-.3,0-.4,0-1.3,0-2.9,0-4.1-1-.3-.3-.5-.5-.7-.8,0,0-.2.2-.3.3-1.8,1.5-4.2,1.6-5.8,1.5-1.7,0-3.3.5-4.5,1.7-1.2,1.2-1.9,2.8-1.9,4.5,0,.4,0,1.5,0,4.8,0,3.4,0,7.7,0,9.6.3,3.1,2.9,5.6,5.9,5.6.3,0,.5,0,.8,0,.2,0,.4,0,.6,0h0Z"/>
      <path class="st1" d="M14.2,29c0,0-.2,0-.3,0-.5-.3-1-.5-1.6-.7-.3,0-.5-.2-.8-.2-.5-.1-1.1-.2-1.6-.2h-.1c-.2,0-.4,0-.6,0-.2,0-.4,0-.5,0h-.1c-2.3,0-4.3-1.8-4.5-4.1,0,0,0,0,0,0,0-1.6,0-5.2,0-8,0-2.8,0-3.7,0-4.1h0c0-1.2.5-2.3,1.3-3.2,1-.9,2.2-1.4,3.6-1.4.3,0,.6,0,.8,0,1.7,0,3.1-.3,4.2-1,.2-.1.4,0,.6,0,1.1.9,2.4,1,3.5,1s.4,0,.6,0c.1,0,.2,0,.4,0h0c.2,0,.4,0,.6,0s.5,0,.7,0c.8,0,1.3.1,1.8.3,1.4.6,2.5,1.8,2.8,3.3,0,.3,0,.6,0,.9v11.6c0,2.5-2.1,4.5-4.6,4.5h-2.4c-.5,0-1,0-1.6.2-.6.2-1.2.5-1.8.9,0,0-.2.1-.3.1h0ZM9.8,26.8h.1c.7,0,1.3,0,1.9.2.3,0,.6.2.9.3.6.2,1,.4,1.5.6.6-.4,1.2-.7,1.9-.9.7-.2,1.3-.2,1.9-.2h2.4c2,0,3.6-1.6,3.6-3.5h0v-11.6c0-.3,0-.5,0-.7-.3-1.2-1.1-2.1-2.2-2.6-.4-.1-.8-.2-1.5-.2-.2,0-.4,0-.6,0s-.4,0-.6,0h0c-.1,0-.2,0-.3,0-.2,0-.4,0-.6,0-1.1,0-2.6-.1-3.9-1-1.2.7-2.7,1-4.5,1s-.6,0-.9,0c-1.1,0-2.1.3-2.8,1.1-.7.7-1,1.5-1.1,2.4,0,.4,0,1.1,0,4.1,0,2.9,0,6.4,0,8,.2,1.8,1.7,3.1,3.5,3.2h.1c.2,0,.3,0,.5,0,.2,0,.4,0,.6,0h0Z"/>
      <path class="st1" d="M14.6,23.9c-3.5,0-6.4-2.9-6.4-6.6s2.9-6.6,6.4-6.6,6.4,2.9,6.4,6.6-2.9,6.6-6.4,6.6ZM14.6,12.4c-2.6,0-4.8,2.2-4.8,4.9s2.1,4.9,4.8,4.9,4.8-2.2,4.8-4.9-2.1-4.9-4.8-4.9Z"/>
      <path class="st1" d="M20.4,12.6c.7,0,1.2-.6,1.2-1.3s-.6-1.3-1.2-1.3-1.2.6-1.2,1.3.6,1.3,1.2,1.3Z"/>
    </g>
  </g>
</svg>