<?xml version="1.0" encoding="UTF-8"?>
<svg id="Layer_1" xmlns="http://www.w3.org/2000/svg" width="10.2mm" height="12.3mm" xmlns:xlink="http://www.w3.org/1999/xlink" version="1.1" viewBox="0 0 28.9 34.9">
  <!-- Generator: Adobe Illustrator 30.0.0, SVG Export Plug-In . SVG Version: 2.1.1 Build 123)  -->
  <defs>
    <style>
      .st0 {
        fill: none;
      }

      .st1 {
        fill-rule: evenodd;
      }

      .st1, .st2 {
        fill: #273d7f;
      }

      .st3 {
        clip-path: url(#clippath);
      }
    </style>
    <clipPath id="clippath">
      <rect class="st0" x="0" y="0" width="28.9" height="34.9"/>
    </clipPath>
  </defs>
  <g class="st3">
    <path class="st2" d="M14.3,34.9h-.2c-.4,0-.6-.4-.7-.8,0,0,0,0-.2-.3,0-.2-.3-.3-.5-.5-.4-.3-.9-.5-1.5-.7-.2,0-.5-.2-.7-.2-.4,0-.8-.2-1.2-.2h-1.5c-4,0-7.4-3.3-7.7-7.3H.1C0,23,0,18.7,0,15.2v-4.6H0C0,8.4.9,6.3,2.5,4.7c1.6-1.5,3.7-2.4,5.9-2.2,2.1,0,3.5-.2,4.6-1.1.2,0,.3-.3.4-.4,0,0,.2-.3.3-.5C13.7.2,14,0,14.4,0s.7.2.9.6c0,.2.2.4.3.5,0,0,.4.5.8.9.7.6,1.8.6,2.9.5h1.9c.7,0,1.8,0,2.9.6,2.4,1,4.2,3.2,4.7,5.8,0,.5.2,1.1.2,1.7v13.7c0,4.4-3.6,7.9-7.9,7.9h-2.5c-.6,0-.9,0-1.4,0h0c-1,.3-1.9,1.5-2,1.8,0,.4-.5.7-.9.7h0ZM9.2,30.4h0c.6,0,1.1,0,1.6.2.3,0,.6.2.8.3.8.3,1.4.6,1.9.9.2,0,.4.3.6.5.6-.7,1.4-1.4,2.4-1.6.7-.2,1.2-.2,1.9-.2h2.5c3.3,0,6-2.7,6-6.1h0v-13.7c0-.4,0-.9,0-1.3-.4-2-1.8-3.7-3.6-4.5-.6-.3-1.3-.4-2.3-.4h-1.8c-1.3,0-2.9,0-4.1-1-.3-.3-.5-.5-.7-.8,0,0-.2.2-.3.3-1.8,1.5-4.2,1.6-5.8,1.5-1.7,0-3.3.5-4.5,1.7-1.2,1.2-1.9,2.8-1.9,4.5v14.3c.3,3.1,2.9,5.6,5.9,5.6h1.4v-.2Z"/>
  </g>
  <path class="st1" d="M22.8,13.6v-.7c-.9,0-1.8-.3-2.5-.7,0,0,0,0,0,0-1-.7-1.8-1.7-2-2.9h0c0-.3,0-.5,0-.8h-3.3v12.8c0,1.4-1.3,2.6-2.8,2.6s-.9-.1-1.3-.3h0c-.9-.5-1.5-1.4-1.5-2.4,0-1.5,1.2-2.7,2.8-2.7s.6,0,.8.1v-2.5c-3,0-5.5,2.3-5.9,5.2.3-2.9,2.8-5.2,5.9-5.2v-.8c-.3,0-.5,0-.8,0-3.3,0-6,2.6-6,5.9s1,3.8,2.6,4.8c0,0,0,0,0,0,1,.7,2.2,1.1,3.5,1.1,3.3,0,6-2.6,6-5.9v-6.5c1.3.9,2.9,1.4,4.6,1.4v-2.5h0ZM15.9,22.1c0,1.4-1.3,2.6-2.8,2.6h0c-.2,0-.3,0-.5,0,.2,0,.3,0,.5,0,1.5,0,2.7-1.2,2.8-2.6v-12.8h0v12.8Z"/>
</svg>